<?xml version="1.0" standalone="no"?><!DOCTYPE svg PUBLIC "-//W3C//DTD SVG 1.1//EN" "http://www.w3.org/Graphics/SVG/1.1/DTD/svg11.dtd"><svg t="1566379915976" class="icon" viewBox="0 0 1024 1024" version="1.1" xmlns="http://www.w3.org/2000/svg" p-id="4704" xmlns:xlink="http://www.w3.org/1999/xlink" width="200" height="200"><defs><style type="text/css"></style></defs><path d="M313.67168 153.53856a40.96 40.96 0 0 1 39.7312 71.65952A327.53664 327.53664 0 0 0 184.32 512c0 180.98176 146.69824 327.68 327.68 327.68s327.68-146.69824 327.68-327.68c0-116.67456-61.44-222.65856-159.78496-281.45664a40.96 40.96 0 1 1 42.04544-70.30784A409.35424 409.35424 0 0 1 921.6 512c0 226.22208-183.37792 409.6-409.6 409.6S102.4 738.22208 102.4 512A409.43616 409.43616 0 0 1 313.67168 153.53856z" fill="#d81e06" p-id="4705"></path><path d="M471.04 102.4m40.96 0l0 0q40.96 0 40.96 40.96l0 409.6q0 40.96-40.96 40.96l0 0q-40.96 0-40.96-40.96l0-409.6q0-40.96 40.96-40.96Z" fill="#d81e06" p-id="4706"></path></svg>