<?xml version="1.0" standalone="no"?><!DOCTYPE svg PUBLIC "-//W3C//DTD SVG 1.1//EN" "http://www.w3.org/Graphics/SVG/1.1/DTD/svg11.dtd"><svg t="1566551240437" class="icon" viewBox="0 0 1024 1024" version="1.1" xmlns="http://www.w3.org/2000/svg" p-id="2235" xmlns:xlink="http://www.w3.org/1999/xlink" width="200" height="200"><defs><style type="text/css"></style></defs><path d="M512 512m-512 0a512 512 0 1 0 1024 0 512 512 0 1 0-1024 0Z" fill="#FFFFFF" p-id="2236"></path><path d="M512 795.306667c-75.093333 0-143.36-27.306667-197.973333-78.506667-13.653333-10.24-13.653333-30.72 0-44.373333 10.24-13.653333 30.72-13.653333 44.373333 0 40.96 40.96 95.573333 61.44 153.6 61.44 122.88 0 221.866667-98.986667 221.866667-221.866667v-17.066667c0-17.066667 10.24-30.72 27.306666-34.133333 17.066667 0 30.72 10.24 34.133334 27.306667v20.48c0 160.426667-126.293333 286.72-283.306667 286.72zM259.413333 563.2c-17.066667 0-30.72-13.653333-30.72-27.306667v-20.48c0-157.013333 126.293333-283.306667 283.306667-283.306666 75.093333 0 143.36 27.306667 197.973333 81.92 13.653333 10.24 13.653333 30.72 0 44.373333-10.24 13.653333-30.72 13.653333-44.373333 0-40.96-40.96-95.573333-61.44-153.6-61.44-122.88 0-221.866667 98.986667-221.866667 221.866667v17.066666c0 10.24-10.24 23.893333-30.72 27.306667 3.413333-3.413333 0 0 0 0z" fill="#333333" p-id="2237"></path><path d="M331.093333 532.48l-71.68 75.093333-71.68-75.093333zM689.493333 491.52l71.68-75.093333 71.68 75.093333z" fill="#333333" p-id="2238"></path></svg>