<?xml version="1.0" standalone="no"?><!DOCTYPE svg PUBLIC "-//W3C//DTD SVG 1.1//EN" "http://www.w3.org/Graphics/SVG/1.1/DTD/svg11.dtd"><svg t="1566111606660" class="icon" viewBox="0 0 1024 1024" version="1.1" xmlns="http://www.w3.org/2000/svg" p-id="9654" xmlns:xlink="http://www.w3.org/1999/xlink" width="200" height="200"><defs><style type="text/css"></style></defs><path d="M512 2.159196C230.86636 2.159196 2.159196 230.86636 2.159196 512 2.159196 793.1353 230.86636 1021.840804 512 1021.840804c281.1353 0 509.840804-228.705504 509.840804-509.840804C1021.840804 230.86636 793.1353 2.159196 512 2.159196z m177.220045 568.167313c-18.315825 69.346541-83.26763 110.123981-116.229808 110.12398 5.614574-62.020875-65.4414-66.417271-66.662898-148.705711-22.707241 21.001128-74.229212 107.441997-40.289504 154.323604-134.056039-41.511002-110.371267-209.994684-64.707838-269.577542 4.638703 22.464934 20.021938 34.918898 20.021938 34.918897 8.301536-8.547164 23.440804-25.639831 36.628331-47.125575 25.394204-41.511002 32.231935-79.848765 20.265906-113.790133l-5.128298-15.627202 14.89364 6.592103c29.7906 13.429835 53.720998 28.81307 71.303261 45.419462 15.383235 14.649673 26.370075 31.010438 32.231935 48.345414 9.033439 26.127767 6.348136 51.279663 2.195708 72.033504 22.952869-11.476434 28.325135-47.371203 28.325135-47.371203s97.674995 54.452901 67.152492 170.440402z" fill="" p-id="9655"></path></svg>