<?xml version="1.0" standalone="no"?><!DOCTYPE svg PUBLIC "-//W3C//DTD SVG 1.1//EN" "http://www.w3.org/Graphics/SVG/1.1/DTD/svg11.dtd"><svg t="1566374199019" class="icon" viewBox="0 0 1024 1024" version="1.1" xmlns="http://www.w3.org/2000/svg" p-id="2172" xmlns:xlink="http://www.w3.org/1999/xlink" width="200" height="200"><defs><style type="text/css"></style></defs><path d="M812.8 551.232c56-72.384 99.008-133.824 99.008-203.328 0-112.896-94.848-204.352-211.968-204.352s-211.968 91.52-211.968 204.352c0 62.4 36.864 121.984 85.056 186.368l-57.984 18.56L402.56 517.312C416.448 494.08 425.344 471.552 425.344 447.296c0-64.064-51.84-115.968-115.712-115.968-63.936 0-115.712 51.904-115.712 115.968 0 26.752 11.712 52.672 28.672 79.488L222.08 526.848 64 880.512l238.848-90.112 217.344 90.112 204.032-90.112L960 880.512 812.8 551.232zM699.904 248.64c56.832 0 102.912 44.416 102.912 99.264s-46.144 99.328-102.912 99.328c-56.896 0-102.912-44.48-102.912-99.328S643.008 248.64 699.904 248.64zM309.696 390.976c30.976 0 56.192 25.216 56.192 56.32 0 31.04-25.216 56.32-56.192 56.32-31.04 0-56.192-25.28-56.192-56.32C253.504 416.192 278.656 390.976 309.696 390.976zM720.128 736.832l-200.064 86.656-213.248-86.656-159.04 72.448 91.136-235.136 14.848-2.816c18.112 24.192 37.888 49.728 55.936 78.08C332.16 613.504 355.776 583.68 375.936 556.288L515.072 600.96l87.104-28.352c31.872 40.896 66.176 84.032 97.664 131.584 29.504-45.312 60.032-84.864 88.64-121.536l91.904 229.504L720.128 736.832z" p-id="2173"></path></svg>