<?xml version="1.0" standalone="no"?><!DOCTYPE svg PUBLIC "-//W3C//DTD SVG 1.1//EN" "http://www.w3.org/Graphics/SVG/1.1/DTD/svg11.dtd"><svg t="1566374098445" class="icon" viewBox="0 0 1638 1024" version="1.1" xmlns="http://www.w3.org/2000/svg" p-id="2038" xmlns:xlink="http://www.w3.org/1999/xlink" width="319.921875" height="200"><defs><style type="text/css"></style></defs><path d="M961.024 24.32c-105.344 0-190.336 84.992-190.336 189.824s190.336 342.4 190.336 342.4S1150.72 319.488 1150.72 214.144C1151.232 109.312 1066.368 24.32 961.024 24.32z m5.76 277.376c-51.328 0-92.8-41.472-92.8-92.8s41.472-92.8 92.8-92.8 92.8 41.472 92.8 92.8-41.984 92.8-92.8 92.8zM730.24 110.848H465.024c-50.304 0-91.264 40.832-91.264 91.264v297.856l218.112 102.272 129.024-340.224c-5.76-19.968-9.472-38.272-9.472-54.528 0-34.304 6.784-66.816 18.816-96.64z m0 0" p-id="2039"></path><path d="M1196.416 114.56c11.52 28.8 17.792 60.288 17.792 93.312 0 138.88-251.648 452.992-251.648 452.992s-109.056-136.32-183.552-268.928l-96 253.696L1262.464 917.76c0-3.2 0.512-5.76 0.512-8.448V202.112c0-41.472-28.288-76.544-66.56-87.552zM373.76 610.944v297.216c0 42.496 29.312 78.592 68.736 88.576L556.288 696.32 373.76 610.944z m797.952 389.12c8.448 0 16.256-1.024 24.064-3.2L647.424 739.456l-98.56 260.608h622.848z m0 0" p-id="2040"></path></svg>