<?xml version="1.0" standalone="no"?><!DOCTYPE svg PUBLIC "-//W3C//DTD SVG 1.1//EN" "http://www.w3.org/Graphics/SVG/1.1/DTD/svg11.dtd"><svg t="1566092306705" class="icon" viewBox="0 0 1024 1024" version="1.1" xmlns="http://www.w3.org/2000/svg" p-id="2748" xmlns:xlink="http://www.w3.org/1999/xlink" width="200" height="200"><defs><style type="text/css"></style></defs><path d="M490.609 715.941c-32.804 22.892-64.31 41.853-91.936 55.566-104.752-51.982-264.64-179.243-343.992-310.779l139.667-0.154a23.532 23.532 0 0 0 15.192-5.514l0.043 0.035 77.969-65.308 85.675 184.23c5.503 11.884 19.549 17.071 31.463 11.598 6.134-2.835 10.485-7.977 12.504-13.917l0.007-0.004 90.707-265 90.466 164.68a288.55 288.55 0 0 0-25.763 22.839c-53.188 53.17-82.836 124.725-82.836 199.95 0.008 7.297 0.277 14.566 0.834 21.782v-0.004z m291.792-73.89c24.574 4.622 43.177 26.195 43.177 52.114 0 29.28-23.744 53.02-53.032 53.02-25.88-0.003-47.491-18.594-52.083-43.166-5.85-31.047-19.115-56.145-41.437-78.48l-18.915-18.917c-12.9-12.898 11.989-37.795 24.897-24.893l18.915 18.907c22.362 22.338 47.451 35.586 78.478 41.415zM398.677 152.31l-0.004 0.003C256.045 9.687 6.44 108.51 6.44 314.782c0 31.826 8.587 65.106 23.43 98.669l155.814-0.168 95.093-79.684c10.053-8.398 25.014-7.074 33.404 2.968 1.546 1.824 2.732 3.813 3.645 5.892l73.567 158.238L480.4 240.664c4.198-12.398 17.653-19.045 30.076-14.841a23.554 23.554 0 0 1 13.138 11.036h0.048l114.482 208.455c39.7-21.45 84.223-33.221 130.244-33.893 14.292-32.872 22.525-65.458 22.525-96.64 0-206.269-249.606-305.094-392.235-162.47z" p-id="2749"></path><path d="M945.575 867.161c-44.407 44.283-105.71 71.679-173.422 71.679-67.635-0.01-128.978-27.387-173.385-71.67-44.477-44.319-71.986-105.49-71.986-173.004 0-67.512 27.502-128.684 71.986-173.005 44.407-44.278 105.75-71.661 173.385-71.661 67.712 0 129.015 27.384 173.422 71.66 44.476 44.319 71.986 105.495 71.986 173.006s-27.51 128.686-71.986 173.004v-0.009z m-350.13-188.824v31.66h52.994v-31.66h-52.995zM788.06 517.43H756.4v53.02h31.66v-53.02z m-31.661 353.472h31.66v-53.018h-31.66v53.018z m192.5-160.904v-31.66h-52.994v31.66h52.994zM772.153 891.343c54.733 0 104.242-22.072 140.052-57.752 35.743-35.634 57.827-84.925 57.827-139.428 0-54.498-22.084-103.786-57.827-139.428-35.81-35.68-85.319-57.747-140.052-57.747-54.696-0.005-104.205 22.068-139.985 57.747-35.773 35.642-57.894 84.93-57.894 139.428s22.121 103.794 57.894 139.428c35.78 35.672 85.289 57.756 139.985 57.756v-0.004z" p-id="2750"></path></svg>