<?xml version="1.0" standalone="no"?><!DOCTYPE svg PUBLIC "-//W3C//DTD SVG 1.1//EN" "http://www.w3.org/Graphics/SVG/1.1/DTD/svg11.dtd"><svg t="1566182007503" class="icon" viewBox="0 0 1024 1024" version="1.1" xmlns="http://www.w3.org/2000/svg" p-id="4626" xmlns:xlink="http://www.w3.org/1999/xlink" width="200" height="200"><defs><style type="text/css"></style></defs><path d="M512 1024C229.232 1024 0 794.768 0 512 0 229.232 229.232 0 512 0c282.768 0 512 229.232 512 512 0 282.768-229.232 512-512 512z m329.168-562.784c0-52.272-21.248-102.352-58.944-139.008-68.24-66.672-178.256-55.856-262.24 9.968-83.984-65.84-193.968-76.64-262.24-9.952a193.92 193.92 0 0 0-58.912 138.992 193.92 193.92 0 0 0 58.944 139.04L465.44 803.04a78.24 78.24 0 0 0 109.056 0l207.744-202.816a193.872 193.872 0 0 0 58.912-139.008zM753.6 351.568a152.928 152.928 0 0 1 46.56 109.648 152.928 152.928 0 0 1-46.56 109.664L545.888 773.728a37.216 37.216 0 0 1-51.76 0L286.4 570.912a152.992 152.992 0 0 1-46.56-109.696 152.96 152.96 0 0 1 46.528-109.664c54.32-53.056 149.072-40.336 220.016 22.624l13.6 12.08 13.632-12.08c70.912-62.96 165.696-75.68 220-22.608zM446.496 566.432l35.056 84.528c7.28 17.536 32.464 16.592 38.4-1.44l43.2-130.88 16.768 57.584c2.688 9.2 11.408 15.312 20.992 14.72l70.816-4.528a20.48 20.48 0 1 0-2.608-40.88l-54.416 3.456-30.656-105.168c-5.632-19.312-32.848-19.792-39.152-0.672l-46.592 141.168-30.944-74.592c-6.704-16.16-29.248-17.04-37.2-1.472l-19.008 37.232h-47.2a20.48 20.48 0 1 0 0 40.976h59.76c7.712 0 14.768-4.32 18.256-11.184l4.528-8.848z m-58.032-173.216a75.152 75.152 0 0 0-75.168 75.12 20.48 20.48 0 0 0 40.992 0c0-18.848 15.296-34.144 34.176-34.144a20.48 20.48 0 1 0 0-40.96z" fill="#8d4030" p-id="4627" data-spm-anchor-id="a313x.7781069.0.i5" class=""></path></svg>