<?xml version="1.0" standalone="no"?><!DOCTYPE svg PUBLIC "-//W3C//DTD SVG 1.1//EN" "http://www.w3.org/Graphics/SVG/1.1/DTD/svg11.dtd"><svg t="1566180977647" class="icon" viewBox="0 0 1024 1024" version="1.1" xmlns="http://www.w3.org/2000/svg" p-id="4451" xmlns:xlink="http://www.w3.org/1999/xlink" width="200" height="200"><defs><style type="text/css"></style></defs><path d="M1023.277601 373.54779499c0-170.847266-134.004938-309.547795-298.350617-309.547795-81.269841 0-157.844092 35.036332-213.468783 94.634215C456.194709 99.03633199 379.259259 63.99999999 298.350617 63.99999999 134.004938 63.99999999 0 202.70052899 0 373.54779499c0 5.779189 0.361199 10.835979 1.083598 15.17037 0 1.444797 0 2.889594 0 4.334392 0 30.340741 7.223986 63.209877 21.671958 98.607407 0.361199 1.083598 1.083598 2.528395 1.444797 3.611993 91.022222 217.803175 440.663139 468.836684 455.83351 480.033862 9.391182 7.223986 20.22716 10.47478 31.424339 10.47478 11.197178 0 22.394356-3.611993 31.424339-10.835979 12.641975-9.752381 311.353792-224.665961 429.465961-427.659965 4.334392-6.862787 7.946384-13.364374 10.835979-19.143563 1.083598-1.805996 1.805996-3.611993 2.889594-5.417989l0.361199-0.722399c0.361199-0.722399 0.722399-1.444797 1.083598-2.167196 7.223986-13.725573 12.641975-26.728748 17.337566-39.009524 12.280776-32.146737 18.421164-61.042681 18.421164-87.771429 0-2.167196 0-3.973192 0-5.417989C1022.916402 384.02257499 1023.277601 378.96578499 1023.277601 373.54779499L1023.277601 373.54779499z" fill="#ffffff" p-id="4452"></path></svg>