<?xml version="1.0" standalone="no"?><!DOCTYPE svg PUBLIC "-//W3C//DTD SVG 1.1//EN" "http://www.w3.org/Graphics/SVG/1.1/DTD/svg11.dtd"><svg t="1566178898269" class="icon" viewBox="0 0 1024 1024" version="1.1" xmlns="http://www.w3.org/2000/svg" p-id="3624" xmlns:xlink="http://www.w3.org/1999/xlink" width="200" height="200"><defs><style type="text/css"></style></defs><path d="M511.419 91.092c-59.581 0-116.19 12.523-167.558 34.845 17.183-2.843 34.734-4.692 52.727-4.692 177.878 0 322.111 144.216 322.111 322.094 0 177.913-144.233 322.094-322.111 322.094-141.489 0-261.384-91.362-304.634-218.21 17.79 216.277 198.613 386.333 419.465 386.333 232.631 0 421.237-188.572 421.237-421.237 0.001-232.64-188.604-421.228-421.236-421.228zM357.498 528.675l30.6-105.716 105.699-30.558-105.699-30.583-30.6-105.699-30.549 105.699-105.709 30.583 105.709 30.558z" p-id="3625" fill="#ffffff"></path></svg>