<?xml version="1.0" standalone="no"?><!DOCTYPE svg PUBLIC "-//W3C//DTD SVG 1.1//EN" "http://www.w3.org/Graphics/SVG/1.1/DTD/svg11.dtd"><svg t="1566092201634" class="icon" viewBox="0 0 1024 1024" version="1.1" xmlns="http://www.w3.org/2000/svg" p-id="1130" xmlns:xlink="http://www.w3.org/1999/xlink" width="200" height="200"><defs><style type="text/css"></style></defs><path d="M791.799861 296.100363c-84.899958-28.699986-195.299903 9.199995-225.099888 90.999954-15.899992 52.799974-26.699987 108.199946-19.299991 162.699919 3.199998 23.999988 12.699994 160.59992-47.299976 217.299892-5.899997 5.499997-5.099997 14.499993 2.499999 17.699991L713.1999 874.000075c23.599988-17.599991 46.799977-44.199978 71.399964-81.59996l29.299986-44.599977c39.79998-60.49997 70.399965-126.199937 90.899954-194.999903l13.899993-46.799977c22.299989-97.599951-41.999979-181.19991-126.899936-209.899895zM482.500015 822.7001l209.099896 96.199952s-62.299969 146.399927-168.199917 93.599954c-105.799947-52.799974-40.89998-189.799905-40.899979-189.799906zM297.100107 0.00051c89.899955 0.2 181.09991 71.399964 180.99991 158.099921-3.099998 54.899973-11.999994 110.599945-37.699981 159.599921-11.299994 21.599989-67.199967 147.399927-30.099985 220.09989 3.599998 7.099996-0.2 15.299992-8.399996 15.899992l-229.399886 16.499992c-16.299992-24.199988-28.999986-56.699972-39.29998-99.89995l-12.299994-51.399975c-16.699992-69.799965-22.999989-141.599929-18.599991-213.099893l2.999999-48.599976C117.700196 58.000481 207.100152-0.19949 297.100107 0.00051zM417.400047 591.300216l-229.199886 21.199989s10.099995 158.799921 127.499937 144.199928 101.699949-165.399918 101.699949-165.399917z" fill="#666666" p-id="1131"></path></svg>