<?xml version="1.0" standalone="no"?><!DOCTYPE svg PUBLIC "-//W3C//DTD SVG 1.1//EN" "http://www.w3.org/Graphics/SVG/1.1/DTD/svg11.dtd"><svg t="1566379690348" class="icon" viewBox="0 0 1024 1024" version="1.1" xmlns="http://www.w3.org/2000/svg" p-id="3896" xmlns:xlink="http://www.w3.org/1999/xlink" width="200" height="200"><defs><style type="text/css"></style></defs><path d="M791.46666666 183.46666667h-537.6a51.2 51.2 0 0 0-51.2 51.2v537.6a51.2 51.2 0 0 0 51.2 51.2h537.6a51.2 51.2 0 0 0 51.2-51.2V234.66666667a51.2 51.2 0 0 0-51.2-51.2z m12.8 576a25.6 25.6 0 0 1-25.6 25.6h-512a25.6 25.6 0 0 1-25.6-25.6V247.46666667a25.6 25.6 0 0 1 25.6-25.6h512a25.6 25.6 0 0 1 25.6 25.6v512z" fill="#666666" p-id="3897"></path><path d="M714.66666666 484.26666667h-384v0.1664c-0.5376-0.0384-1.0496-0.1664-1.6-0.1664a19.2 19.2 0 0 0 0 38.4c0.5376 0 1.0624-0.1152 1.6-0.1792v0.1792h384a19.2 19.2 0 0 0 0-38.4z" fill="#666666" p-id="3898"></path><path d="M502.67306666 310.67306667v384h0.1664c-0.0384 0.5376-0.1664 1.0496-0.1664 1.6a19.2 19.2 0 0 0 38.4 0c0-0.5376-0.1152-1.0624-0.1792-1.6h0.1792v-384a19.2 19.2 0 0 0-38.4 0z" fill="#666666" p-id="3899"></path></svg>