<?xml version="1.0" standalone="no"?><!DOCTYPE svg PUBLIC "-//W3C//DTD SVG 1.1//EN" "http://www.w3.org/Graphics/SVG/1.1/DTD/svg11.dtd"><svg t="1566287149357" class="icon" viewBox="0 0 1024 1024" version="1.1" xmlns="http://www.w3.org/2000/svg" p-id="4202" xmlns:xlink="http://www.w3.org/1999/xlink" width="200" height="200"><defs><style type="text/css"></style></defs><path d="M514.816 83.285333c20.0192 0.170667 39.9872 1.536 59.8016 4.437334 39.236267 5.802667 77.653333 17.066667 113.800533 33.450666a429.738667 429.738667 0 0 1 117.469867 78.677334 431.616 431.616 0 0 1 85.504 112.298666 426.496 426.496 0 0 1 41.642667 118.613334c8.738133 45.568 10.0352 92.501333 3.8912 138.410666a425.1648 425.1648 0 0 1-37.393067 126.122667 430.6432 430.6432 0 0 1-88.081067 123.221333 429.806933 429.806933 0 0 1-132.608 88.405334 429.738667 429.738667 0 0 1-328.789333 1.877333 428.936533 428.936533 0 0 1-116.5312-71.168c-39.8336-34.133333-73.335467-75.434667-98.372267-121.514667a425.352533 425.352533 0 0 1-40.789333-107.52 430.813867 430.813867 0 0 1-8.772267-140.458666c4.386133-43.178667 15.36-85.674667 32.529067-125.44a427.639467 427.639467 0 0 1 83.677867-126.464 431.274667 431.274667 0 0 1 129.160533-93.013334c35.072-16.384 72.362667-27.818667 110.557867-34.133333 20.5824-3.413333 41.3696-5.290667 62.225066-5.802667 3.703467 0 7.389867-0.170667 11.076267 0z m-5.3248 34.133334c-18.432 0-36.829867 1.365333-55.074133 4.096-36.078933 5.290667-71.424 15.701333-104.6528 30.72-36.864 16.725333-71.082667 39.082667-101.1712 66.048a397.2096 397.2096 0 0 0-86.818134 111.957333 392.9088 392.9088 0 0 0-37.205333 107.008c-8.192 42.666667-9.2672 86.698667-3.242667 129.877333 5.632 40.106667 17.5104 79.189333 35.106134 115.712a395.946667 395.946667 0 0 0 81.749333 112.981334c35.413333 34.133333 77.141333 61.610667 122.5728 80.554666a396.612267 396.612267 0 0 0 151.296 30.037334c51.797333 0 103.458133-10.24 151.278933-30.037334a397.312 397.312 0 0 0 122.5728-80.554666 395.6736 395.6736 0 0 0 81.749334-112.981334 392.055467 392.055467 0 0 0 35.106133-115.712c6.0416-43.178667 4.949333-87.210667-3.242667-129.877333a392.96 392.96 0 0 0-37.205333-107.008 396.834133 396.834133 0 0 0-86.801067-111.957333 399.2064 399.2064 0 0 0-101.1712-66.048 393.0112 393.0112 0 0 0-104.669866-30.72 371.950933 371.950933 0 0 0-55.074134-4.096c-2.56-0.170667-2.56-0.170667-5.12 0zM591.701333 351.573333a85.248 85.248 0 0 1 85.367467 85.333334c0 9.557333-7.6288 17.066667-17.066667 17.066666-9.506133 0-17.066667-7.509333-17.066666-17.066666v0.170666c0-28.330667-22.869333-51.370667-51.234134-51.370666h-34.065066a51.217067 51.217067 0 0 0-51.234134 51.370666v170.325334c0 28.501333 22.852267 51.370667 51.234134 51.370666h34.065066a51.114667 51.114667 0 0 0 51.234134-51.370666v0.170666a17.083733 17.083733 0 0 1 34.133333 0v0.170667c0 47.104-38.1952 85.162667-85.367467 85.162667h-34.065066a85.111467 85.111467 0 0 1-85.367467-85.162667V436.906667c0-47.104 38.1952-85.333333 85.367467-85.333334h34.065066z m-221.832533 0a68.266667 68.266667 0 1 0 0 136.533334 68.266667 68.266667 0 0 0 0-136.533334z m0 102.4c-18.8416 0-34.133333-15.189333-34.133333-34.133333 0-18.773333 15.291733-34.133333 34.133333-34.133333s34.133333 15.36 34.133333 34.133333c0 18.944-15.291733 34.133333-34.133333 34.133333z" p-id="4203" fill="#ffffff"></path></svg>