<?xml version="1.0" standalone="no"?><!DOCTYPE svg PUBLIC "-//W3C//DTD SVG 1.1//EN" "http://www.w3.org/Graphics/SVG/1.1/DTD/svg11.dtd"><svg t="1566092366032" class="icon" viewBox="0 0 1024 1024" version="1.1" xmlns="http://www.w3.org/2000/svg" p-id="5435" xmlns:xlink="http://www.w3.org/1999/xlink" width="200" height="200"><defs><style type="text/css"></style></defs><path d="M151.466667 586.666667c0 196.266667 157.866667 354.133333 354.133333 354.133333s354.133333-160 354.133333-354.133333c0-113.066667-102.4-268.8-315.733333-456.533334-12.8-10.666667-27.733333-23.466667-27.733333-23.466666-6.4-6.4-17.066667-6.4-23.466667 0 0 0-14.933333 12.8-27.733333 25.6-209.066667 185.6-313.6 341.333333-313.6 454.4zM482.133333 8.533333c14.933333-12.8 36.266667-12.8 51.2 0 273.066667 228.266667 409.6 420.266667 409.6 576C942.933333 827.733333 746.666667 1024 507.733333 1024S72.533333 827.733333 72.533333 586.666667c0-157.866667 136.533333-349.866667 409.6-578.133334z m-102.4 494.933334v-172.8c0-72.533333 57.6-130.133333 130.133334-130.133334s130.133333 57.6 130.133333 130.133334v172.8c55.466667 40.533333 87.466667 104.533333 87.466667 172.8 0 119.466667-96 215.466667-215.466667 215.466666s-215.466667-96-215.466667-215.466666c-4.266667-70.4 29.866667-132.266667 83.2-172.8z m147.2 198.4c68.266667-21.333333 149.333333-115.2 155.733334-34.133334-2.133333-57.6-36.266667-110.933333-85.333334-140.8v-196.266666c0-46.933333-38.4-87.466667-87.466666-87.466667s-87.466667 38.4-87.466667 87.466667v25.6h51.2v42.666666h-51.2v42.666667h87.466667v42.666667h-87.466667v40.533333c-53.333333 29.866667-87.466667 87.466667-87.466667 149.333333 36.266667 42.666667 130.133333 46.933333 192 27.733334z" p-id="5436"></path></svg>