<?xml version="1.0" standalone="no"?><!DOCTYPE svg PUBLIC "-//W3C//DTD SVG 1.1//EN" "http://www.w3.org/Graphics/SVG/1.1/DTD/svg11.dtd"><svg t="1566287185652" class="icon" viewBox="0 0 1024 1024" version="1.1" xmlns="http://www.w3.org/2000/svg" p-id="5009" xmlns:xlink="http://www.w3.org/1999/xlink" width="200" height="200"><defs><style type="text/css"></style></defs><path d="M512.23 964.458c-105.085 0-207.088-55.216-266.206-144.094-56.376-84.75-65.805-188.237-25.919-284.054 41.01-75.514 86.42-144.106 130.35-210.45 34.079-51.479 69.324-104.708 102.15-160.647 11.984-20.335 23.372-42.862 34.394-64.646 7.666-15.167 15.494-30.654 23.55-45.433l54.66 108.1 0.268 0.45c32.243 54.916 68.96 107.487 104.47 158.331 50.95 72.955 99.077 141.866 132.55 214.096 40.904 88.911 32.712 193.842-21.933 280.646-57.12 90.743-155.445 145.942-263.004 147.656-1.788 0.03-3.56 0.045-5.33 0.045z m40.026-731.162c-21.221-29.56-64.986-30.04-86.823-0.929-65.628 87.493-148.787 213.121-184.73 281.417-39.498 78.571-40.05 178.02 9.08 259.813 48.297 80.395 135.76 136.023 228.424 138.178l1.02-0.008c88.579-3.392 180.612-65.862 224.218-146.338 46.51-85.822 33.948-185.787-23.333-281.491l-0.477-0.748c-18.553-27.546-44.65-68.564-72.275-111.988-24.875-39.095-64.758-95.634-95.104-137.906z" p-id="5010" fill="#ffffff"></path><path d="M743.661 589.7c-51.596-11.877-144.6-20.184-245.463 33.726-90.857 48.56-179.554 20.807-226.283-1.396-2.256 50.44 10.69 102.826 38.522 149.162 45.145 75.147 120.706 119.403 207.32 121.417l0.953-0.008c71.576-2.741 140.881-41.012 184.7-99.918 10.846-16.894 20.61-34.331 29.257-51.516 19.955-47.712 23.573-99.291 10.994-151.466z" p-id="5011" fill="#ffffff"></path></svg>