<?xml version="1.0" standalone="no"?><!DOCTYPE svg PUBLIC "-//W3C//DTD SVG 1.1//EN" "http://www.w3.org/Graphics/SVG/1.1/DTD/svg11.dtd"><svg t="1566092273714" class="icon" viewBox="0 0 1024 1024" version="1.1" xmlns="http://www.w3.org/2000/svg" p-id="1872" xmlns:xlink="http://www.w3.org/1999/xlink" width="200" height="200"><defs><style type="text/css"></style></defs><path d="M464.4 384.2l48-36.9h-59.1l-22.2-59.1-22.1 59.1h-59l48 36.9-22.2 66.4 55.4-40.6 55.4 40.6-22.2-66.4z m22.2 66.4" p-id="1873" fill="#707070"></path><path d="M206 550.3h-59.1l48 36.9-22.2 66.5 55.4-40.6 55.4 40.6-22.2-66.5 48-36.9h-59.1l-22.1-59.1-22.1 59.1z m22.1-59.1" p-id="1874" fill="#707070"></path><path d="M207.8 795.5c-14 0-47.2-0.8-60.9-2.1C228.8 894 372.7 958.3 512.4 958.3c246.7 0 446.7-200.4 446.7-447.7C959.1 277.4 781.2 86.1 554 65c62.8 77.1 100.5 175.5 100.5 282.8 0 247.3-200 447.7-446.7 447.7z m0 0" p-id="1875" fill="#707070"></path><path d="M131.7 196.8l-30.5 91.4 76.1-55.8 76.1 55.8-30.4-91.4 66-50.8h-81.2l-30.5-81.2-30.5 81.2H65.7l66 50.8z m-66-50.7" p-id="1876" fill="#707070"></path></svg>