<?xml version="1.0" standalone="no"?><!DOCTYPE svg PUBLIC "-//W3C//DTD SVG 1.1//EN" "http://www.w3.org/Graphics/SVG/1.1/DTD/svg11.dtd"><svg t="1567602307103" class="icon" viewBox="0 0 1230 1024" version="1.1" xmlns="http://www.w3.org/2000/svg" p-id="2082" xmlns:xlink="http://www.w3.org/1999/xlink" width="240.234375" height="200"><defs><style type="text/css"></style></defs><path d="M733.165056 571.7504l20.224-25.9584a131.6352 131.6352 0 0 0-22.6816-184.7808l-155.648-121.6a131.6352 131.6352 0 0 0-184.7808 22.6816L147.129856 573.44a131.6352 131.6352 0 0 0 22.6816 184.7808l155.648 121.6a131.6352 131.6352 0 0 0 184.832-22.7328l80.9984-103.7312" fill="#FDA933" p-id="2083"></path><path d="M585.350656 386.6624l-20.224 25.9584a131.6352 131.6352 0 0 0 22.6816 184.832l155.648 121.5488a131.6352 131.6352 0 0 0 184.7808-22.6816l243.1488-311.296a131.6352 131.6352 0 0 0-22.6816-184.7808l-155.648-121.5488a131.6352 131.6352 0 0 0-184.832 22.6816l-80.9984 103.7312" fill="#FFDCAC" p-id="2084"></path><path d="M550.790656 805.1712l-40.3456-31.488-94.5664 121.0368a102.4 102.4 0 0 1-143.7696 17.6128l-181.5552-141.824a102.4 102.4 0 0 1-17.6128-143.7696l283.648-363.1104a102.4 102.4 0 0 1 143.7696-17.6128l181.5552 141.824a102.4 102.4 0 0 1 17.664 143.7696l-23.6544 30.208 40.3456 31.5392 23.6544-30.208a153.6 153.6 0 0 0-26.4704-215.6544l-181.5552-141.824a153.6 153.6 0 0 0-215.6032 26.4704L32.544256 595.2512a153.6 153.6 0 0 0 26.4704 215.552l181.5552 141.8752a153.6 153.6 0 0 0 215.552-26.4704l94.6176-121.0368z m0 0l-40.3456-31.488-94.5664 121.0368a102.4 102.4 0 0 1-143.7696 17.6128l-181.5552-141.824a102.4 102.4 0 0 1-17.6128-143.7696l283.648-363.1104a102.4 102.4 0 0 1 143.7696-17.6128l181.5552 141.824a102.4 102.4 0 0 1 17.664 143.7696l-23.6544 30.208 40.3456 31.5392 23.6544-30.208a153.6 153.6 0 0 0-26.4704-215.6544l-181.5552-141.824a153.6 153.6 0 0 0-215.6032 26.4704L32.544256 595.2512a153.6 153.6 0 0 0 26.4704 215.552l181.5552 141.8752a153.6 153.6 0 0 0 215.552-26.4704l94.6176-121.0368z" fill="#2A1212" p-id="2085"></path><path d="M639.673856 192.4096l40.3456 31.5392 94.5664-121.0368a102.4 102.4 0 0 1 143.7184-17.664l181.5552 141.824a102.4 102.4 0 0 1 17.664 143.7696l-283.648 363.1104a102.4 102.4 0 0 1-143.7696 17.664l-181.5552-141.824a102.4 102.4 0 0 1-17.664-143.7696l23.6544-30.2592-40.3456-31.5392-23.6544 30.2592a153.6 153.6 0 0 0 26.4704 215.6032l181.5552 141.824a153.6 153.6 0 0 0 215.6032-26.4192l283.6992-363.1104a153.6 153.6 0 0 0-26.4704-215.6032L949.843456 44.9536a153.6 153.6 0 0 0-215.6032 26.4192l-94.5664 121.0368z m0 0l40.3456 31.5392 94.5664-121.0368a102.4 102.4 0 0 1 143.7184-17.664l181.5552 141.824a102.4 102.4 0 0 1 17.664 143.7696l-283.648 363.1104a102.4 102.4 0 0 1-143.7696 17.664l-181.5552-141.824a102.4 102.4 0 0 1-17.664-143.7696l23.6544-30.2592-40.3456-31.5392-23.6544 30.2592a153.6 153.6 0 0 0 26.4704 215.6032l181.5552 141.824a153.6 153.6 0 0 0 215.6032-26.4192l283.6992-363.1104a153.6 153.6 0 0 0-26.4704-215.6032L949.843456 44.9536a153.6 153.6 0 0 0-215.6032 26.4192l-94.5664 121.0368z" fill="#2A1212" p-id="2086"></path></svg>