<?xml version="1.0" standalone="no"?><!DOCTYPE svg PUBLIC "-//W3C//DTD SVG 1.1//EN" "http://www.w3.org/Graphics/SVG/1.1/DTD/svg11.dtd"><svg t="1566378013815" class="icon" viewBox="0 0 1024 1024" version="1.1" xmlns="http://www.w3.org/2000/svg" p-id="3095" xmlns:xlink="http://www.w3.org/1999/xlink" width="200" height="200"><defs><style type="text/css"></style></defs><path d="M512 0C260.031449 0 51.057007 182.13016 8.411368 421.770049c-1.754371 11.703818-0.805088 4.385928-0.805088 4.385927l-1.02138 7.305875C2.703654 459.140557 0 485.131686 0 511.939919c0 282.778192 229.233824 512 512 512s512-229.161726 512-511.939919S794.778192 0 512 0z m136.564576 76.219015c-89.605107 16.233941-165.451618 44.616302-229.510198 80.67704a54.421554 54.421554 0 0 0-68.096036 3.364547c-38.980685-14.419489-70.727593-23.623929-90.914877-28.971156a456.244643 456.244643 0 0 1 388.521111-55.070431z m-426.648643 83.164402a1152.153207 1152.153207 0 0 1 111.318454 31.602713 55.058415 55.058415 0 0 0-1.02138 10.309934 54.265343 54.265343 0 0 0 1.826468 13.386092c-94.279425 75.113521-155.418057 166.761388-194.699148 250.166115a54.794058 54.794058 0 0 0-44.760496 23.263442 861.006905 861.006905 0 0 1-36.361145-25.894998 455.824075 455.824075 0 0 1 163.697247-302.833298zM78.117581 653.899786a455.115117 455.115117 0 0 1-22.746744-141.899786c0-4.385928 0.516698-8.555563 0.660893-12.941491q14.034969 11.247201 28.526556 21.869558a54.577765 54.577765 0 0 0 17.699922 39.064798 798.611373 798.611373 0 0 0-24.140627 93.906921z m70.295008 133.488418a456.617147 456.617147 0 0 1-41.696355-65.608674 925.899411 925.899411 0 0 1 32.624093-147.234997 54.733976 54.733976 0 0 0 20.547772-4.025441q35.135488 20.896243 71.905184 38.83649a64.262855 64.262855 0 0 0-2.186956 16.510315 68.300312 68.300312 0 0 0 3.604873 21.509071 645.043817 645.043817 0 0 0-84.798611 140.013236z m33.717571 39.713676a577.560609 577.560609 0 0 1 76.795795-144.89183 68.756929 68.756929 0 0 0 98.893661-21.509071 996.050224 996.050224 0 0 0 193.100988 43.006125 780.815321 780.815321 0 0 0 20.115187 160.3327 37.010021 37.010021 0 1 0 18.649205 69.345725c2.703654 8.855969 5.635617 17.77202 8.555564 26.772184l0.072097 0.072098a454.934873 454.934873 0 0 1-416.182497-133.127931z m565.760661 75.269732a453.180502 453.180502 0 0 1-115.788495 49.663122c-3.86923-12.653101-6.945387-15.428853-10.16574-27.793564 0 0 17.77202-15.621113 13.217865-37.454623s-28.971156-30.94182-30.425122-29.475838c-12.016241-56.824802-12.725199-101.296909-13.602384-149.650262a1028.301814 1028.301814 0 0 0 126.398836 2.198972 68.889108 68.889108 0 0 0 49.266587 52.955573 700.018118 700.018118 0 0 1-18.901547 139.55662z m41.179657-28.021874a709.907484 709.907484 0 0 0 18.721303-112.856532 68.756929 68.756929 0 0 0 46.370673-64.8877l-0.072098-1.201624c27.060574-4.650285 54.854139-10.658406 82.996175-17.591777a457.241991 457.241991 0 0 1-148.016053 196.537633z m55.082447-212.987866a68.768946 68.768946 0 0 0-40.014081-30.689479 485.227816 485.227816 0 0 0-53.400174-158.974864 134.053181 134.053181 0 0 1-34.162172 30.040601 534.554484 534.554484 0 0 1 41.107559 131.601869 69.069352 69.069352 0 0 0-37.082118 39.497383 1023.927903 1023.927903 0 0 1-129.246685-4.169636 595.032223 595.032223 0 0 1 24.356919-150.203009 135.002464 135.002464 0 0 1-36.132835-13.962871 607.877585 607.877585 0 0 0-28.214133 159.56366 1039.260626 1039.260626 0 0 1-184.184938-42.645638 68.889108 68.889108 0 0 0-14.924171-38.45197 714.750029 714.750029 0 0 1 187.837875-112.339835 135.050529 135.050529 0 0 1-22.602549-42.056842 744.177803 744.177803 0 0 0-202.101152 130.616536 67.158769 67.158769 0 0 0-16.822737-2.403248 68.684832 68.684832 0 0 0-47.548265 19.225985q-33.645474-15.464902-63.049215-31.446502a53.772677 53.772677 0 0 0-12.436809-65.824966c47.331972-103.567979 110.885869-179.198198 178.032622-234.316694a54.349457 54.349457 0 0 0 79.439368-13.289962 706.554953 706.554953 0 0 1 112.195639 66.269567 136.636673 136.636673 0 0 1 25.606609-22.530451 876.428548 876.428548 0 0 0-129.174588-76.07482 53.70058 53.70058 0 0 0-2.487361-13.818677c112.952663-65.536577 220.005351-83.452792 262.146307-88.211223a456.917553 456.917553 0 0 1 126.09843 85.507569 617.202187 617.202187 0 0 0-109.203596 91.071088 135.59126 135.59126 0 0 1 29.547936 25.450398 516.69835 516.69835 0 0 1 110.813772-83.6811 455.595766 455.595766 0 0 1 81.554225 139.184116 1151.60046 1151.60046 0 0 0-162.014973 6.368608 128.8141 128.8141 0 0 1 1.201624 45.277195 1173.794457 1173.794457 0 0 1 173.033866-13.386093 448.566265 448.566265 0 0 1-2.018728 246.645357c-36.048722 9.288554-71.56873 16.810721-106.163487 22.157948zM854.090356 695.367833v-0.072097 0.072097z" fill="#3E546D" p-id="3096"></path><path d="M549.310427 385.468985a95.817503 95.817503 0 1 1 95.781455 95.817504 95.82952 95.82952 0 0 1-95.781455-95.817504z" fill="#3E546D" p-id="3097"></path><path d="M582.871788 385.468985a62.316224 62.316224 0 1 0 62.280175-60.189349 62.316224 62.316224 0 0 0-62.280175 60.189349z" fill="#3E546D" p-id="3098"></path><path d="M645.151963 381.071041m-30.977868 0a30.977869 30.977869 0 1 0 61.955737 0 30.977869 30.977869 0 1 0-61.955737 0Z" fill="#3E546D" p-id="3099"></path><path d="M648.528527 387.487714m-102.402403 0a102.402403 102.402403 0 1 0 204.804806 0 102.402403 102.402403 0 1 0-204.804806 0Z" fill="#AF1F24" p-id="3100" data-spm-anchor-id="a313x.7781069.0.i0" class="selected"></path></svg>