<?xml version="1.0" standalone="no"?><!DOCTYPE svg PUBLIC "-//W3C//DTD SVG 1.1//EN" "http://www.w3.org/Graphics/SVG/1.1/DTD/svg11.dtd"><svg t="1567042156149" class="icon" viewBox="0 0 1024 1024" version="1.1" xmlns="http://www.w3.org/2000/svg" p-id="2986" xmlns:xlink="http://www.w3.org/1999/xlink" width="200" height="200"><defs><style type="text/css"></style></defs><path d="M512 512m-481.882353 0a481.882353 481.882353 0 1 0 963.764706 0 481.882353 481.882353 0 1 0-963.764706 0Z" fill="#3C81F0" p-id="2987"></path><path d="M853.353412 764.867765c-1.897412-0.948706-4.743529-2.831059-8.538353-2.831059h-38.912c0.948706 0 2.846118-2.816 3.794823-3.764706 2.846118-3.764706 7.589647-7.529412 15.179294-13.176471 7.604706-5.647059 12.348235-10.345412 16.143059-13.17647 2.846118-2.816 6.625882-6.580706 9.487059-11.294118 2.861176-4.698353 4.743529-10.345412 4.74353-16.941176 0-3.764706-0.948706-7.529412-1.897412-11.294118-1.897412-3.764706-3.794824-6.580706-5.692236-9.411765a34.093176 34.093176 0 0 0-9.487058-6.580706c-5.692235-1.882353-11.399529-3.764706-18.974118-3.764705-6.656 0-11.399529 0.933647-16.143059 2.816a34.153412 34.153412 0 0 0-11.399529 7.529411c-2.846118 2.831059-5.692235 6.595765-6.625883 10.360471-1.912471 3.764706-1.912471 7.529412-1.91247 10.345412 0 2.831059 0.948706 4.713412 2.861176 6.595764 1.882353 1.882353 3.779765 2.816 5.677177 2.816 2.861176 0 4.758588-0.933647 6.656-2.816s2.846118-4.713412 3.794823-7.529411c0.948706-2.831059 1.897412-5.647059 2.846118-5.647059 3.794824-5.647059 8.538353-8.478118 15.179294-8.478118 2.861176 0 5.692235 0.948706 8.538353 1.882353 2.861176 0.948706 4.758588 2.831059 5.707294 5.647059 1.897412 2.831059 1.897412 5.647059 1.897412 8.478118 0 2.816-0.948706 5.647059-1.897412 8.463058-0.948706 2.831059-3.809882 5.647059-5.707294 8.478118-2.846118 2.816-5.692235 5.647059-10.435765 8.463059-1.897412 1.882353-5.692235 4.713412-11.38447 9.411765-5.692235 4.713412-11.384471 10.360471-18.040471 16.941176-1.897412 1.882353-2.846118 3.764706-4.743529 6.595765-0.948706 2.816-1.897412 5.647059-1.897412 6.580706 0 2.831059 0.948706 4.713412 2.861176 7.529411 1.882353 1.882353 4.728471 2.831059 8.523295 2.831059h54.106352a10.842353 10.842353 0 0 0 7.589648-2.831059 8.508235 8.508235 0 0 0 2.861176-6.580705c-1.912471-0.948706-2.861176-3.764706-4.758588-5.647059z" fill="#FFFFFF" p-id="2988"></path><path d="M413.680941 560.188235m15.058824 0l182.482823 0q15.058824 0 15.058824 15.058824l0 0q0 15.058824-15.058824 15.058823l-182.482823 0q-15.058824 0-15.058824-15.058823l0 0q0-15.058824 15.058824-15.058824Z" fill="#FFFFFF" p-id="2989"></path><path d="M535.024941 484.728471v180.705882a15.058824 15.058824 0 1 1-30.117647 0v-180.705882a15.058824 15.058824 0 0 1 30.117647 0z" fill="#FFFFFF" p-id="2990"></path><path d="M647.830588 756.525176a234.089412 234.089412 0 0 1-143.676235 48.865883C375.416471 805.391059 271.058824 702.433882 271.058824 575.427765c0-84.419765 76.528941-201.637647 228.894117-354.198589l10.390588-10.405647 10.089412 10.676706c144.323765 152.515765 216.801882 269.733647 216.801883 353.92753v2.529882a78.682353 78.682353 0 0 0-28.431059-5.722353c-1.882353-72.96-68.020706-180.600471-199.017412-320.873412-140.438588 142.426353-210.326588 251.226353-210.326588 324.065883 0 111.540706 91.632941 201.938824 204.694588 201.938823 48.022588 0 92.175059-16.308706 127.096471-43.625412a103.544471 103.544471 0 0 0 16.564705 22.784z" fill="#FFFFFF" p-id="2991"></path><path d="M707.764706 768c-41.577412 0-75.294118-40.448-75.294118-90.352941s33.716706-90.352941 75.294118-90.352941 75.294118 40.448 75.294118 90.352941-33.716706 90.352941-75.294118 90.352941z m0-30.117647c24.952471 0 45.176471-26.955294 45.17647-60.235294s-20.224-60.235294-45.17647-60.235294-45.176471 26.955294-45.176471 60.235294 20.224 60.235294 45.176471 60.235294z" fill="#FFFFFF" p-id="2992"></path></svg>