<?xml version="1.0" standalone="no"?><!DOCTYPE svg PUBLIC "-//W3C//DTD SVG 1.1//EN" "http://www.w3.org/Graphics/SVG/1.1/DTD/svg11.dtd"><svg t="1566111239566" class="icon" viewBox="0 0 1024 1024" version="1.1" xmlns="http://www.w3.org/2000/svg" p-id="7823" xmlns:xlink="http://www.w3.org/1999/xlink" width="200" height="200"><defs><style type="text/css"></style></defs><path d="M965.453919 224.360557a525.597222 525.597222 0 0 0-45.409349-62.038125c-37.286831-43.874385-84.167187-76.748195-131.1115-108.854523a605.223474 605.223474 0 0 0-81.481-48.415319c-31.46676-14.837984-54.235391 4.476978-49.758413 38.693881a313.388463 313.388463 0 0 1 2.8141 42.978989c-0.447698 50.589852-18.227696 91.905963-65.55575 116.145602-47.20014 24.175681-93.249057 22.065106-138.146751-6.523597-8.314388-5.308417-16.628776-10.68079-25.582731-14.71007-29.228271-13.239064-54.171434-4.349064-67.602369 24.879206-8.634172 18.867265-15.221725 38.629925-22.768631 57.944887-42.467335 108.72661-84.806755 217.453219-127.657831 325.924002a104.121718 104.121718 0 0 1-16.820646 27.62935c-24.943163 30.05971-52.316686 58.328628-75.788842 89.539561-32.617983 43.426687-57.561146 91.202438-67.154671 145.565743-9.913309 55.834312 2.302446 103.226322 48.031579 141.152722 42.019637 34.856472 56.154096 38.310141 104.121718 10.616833 63.445175-36.647263 118.959702-83.847403 171.532215-134.309341 59.735678-57.241362 117.360781-116.721213 175.88128-175.241712a55.834312 55.834312 0 0 1 0.831439 0.703526c65.619707-68.241937 131.367327-136.35596 196.795164-204.725811 69.58503-72.654958 138.97819-145.565743 208.371349-218.348614 17.076473-17.907912 19.57079-27.62935 6.45964-48.60719z m-164.305094-118.703875l96.127114 83.91136-119.919055 134.181427c-3.83741-12.983236-8.122517-22.512804-9.209783-32.362155-6.971294-63.317261 12.087841-122.093587 33.001724-185.730632zM457.188997 241.756814c65.811577 27.245609 127.210133 20.658056 183.108402-23.344242 57.68906-45.345392 62.229995-108.72661 56.921578-179.398906 29.548055 19.378919 56.28201 36.647263 82.632223 54.555175 1.918705 1.279137 2.238489 7.035251 1.343094 10.233093-9.593524 35.30417-19.314962 70.608339-29.484098 105.720638a22.256977 22.256977 0 0 1-7.418993 10.29705 590.705274 590.705274 0 0 1-198.202213 104.697329c-25.710645 7.802733-41.891723 28.396832-55.898269 49.054888a3415.038849 3415.038849 0 0 0-97.470207 152.345167c-14.454243 23.919854-32.617983 36.007695-62.038125 34.536688 33.321508-110.005746 77.323806-214.511205 126.506608-318.69688z m275.845805 37.094961a596.269518 596.269518 0 0 1-172.683439 90.498913c-19.57079 6.395683-37.9264 25.774602-50.334025 43.682515-35.687911 51.613161-69.009419 104.8892-101.24366 158.74085-11.448272 19.187049-25.774602 28.972444-46.880356 30.763234-15.669423 1.343093-31.402803 2.302446-47.519924 3.453669 3.83741-23.280286 4.668849-24.111725 24.81525-25.326904 29.0364-1.790791 51.101506-13.047193 66.770929-39.461364 29.548055-49.758413 61.398556-98.173733 92.609489-146.84488a127.913658 127.913658 0 0 1 23.216329-28.844529c11.320359-9.593524 24.111725-19.378919 37.9264-23.983811a624.730307 624.730307 0 0 0 179.590776-93.1851c1.534964-1.151223 3.197841-2.110575 6.523596-4.285108 3.069928 15.797337-1.023309 26.094386-12.791365 34.856472zM335.479152 624.602393c7.674819 1.151223 15.73338-1.087266 23.664026-1.59892 30.315537-2.174532 52.060859-15.797337 67.858196-43.042946 28.524746-49.118845 59.479851-96.830639 89.923302-144.798262 6.587553-10.424963 14.006546-20.913883 23.152372-28.844529 10.169136-8.762086 21.937192-17.396258 34.472731-21.169711 63.381218-19.314962 119.279486-51.932945 171.724086-92.097834l16.436905 44.641867c-9.08187 10.361006-19.059135 22.512804-29.867839 33.961076-57.433233 60.886901-114.674595 122.02963-172.811352 182.276963-49.502586 51.293377-99.64474 102.075099-150.554376 152.025383-29.675969 29.100357-61.590426 55.962225-92.097834 84.167187-8.314388 7.674819-15.989207 7.674819-23.216329 0.319784-23.280286-24.111725-46.048917-48.60719-69.073376-73.038699l55.258701-60.631074c2.046619-2.174532 4.732805-4.221151 5.756114-6.779423 8.953956-23.152372 26.478127-28.780573 49.374673-25.390862z m63.828915-402.672196c1.534964-3.453669 9.913309-5.692158 14.965898-5.372374 4.924676 0.255827 9.593524 4.668849 14.390287 7.035252 9.465611 4.476978 11.000575 10.48892 6.139855 20.082444-9.337697 18.419567-17.524171 37.414745-26.669998 57.241362l-35.943738-11.192445c9.145827-23.408199 17.396258-45.921003 27.117696-67.794239zM365.538861 308.463787l34.280861 10.552877-21.489495 51.22942-31.978414-9.401654 19.187048-52.4446z m-26.158343 70.99208l30.827192 9.465611-18.547481 47.967622-30.571364-9.465611c6.331726-16.628776 12.151798-31.65863 18.291653-47.967622z m-25.518775 66.834887l30.699278 9.145826c-5.884028 17.076473-11.320359 33.129637-17.14043 50.397982l-32.554026-10.041223c6.395683-16.436905 12.343668-32.042371 18.995178-49.502585zM287.51153 514.404777l33.961076 10.68079-18.995178 52.380643-36.135609-10.936617 21.105754-52.124816z m-29.164314 70.544382l36.455392 10.936618c-6.587553 12.023884-12.343668 23.280286-18.931221 34.08899-1.279137 2.110575-5.820071 3.965323-8.250431 3.325755-9.401654-2.366403-18.54748-5.756115-28.268919-8.953956l18.995179-39.397407z m-55.642442 82.056612c20.018488-26.542084 26.2223-27.885178 55.06683-14.070502l-45.153521 45.217478c-1.151223-12.343668-20.849926-16.500862-9.849352-31.146976z m-105.976466 263.310266c-9.849352-25.390861-8.953956-49.246758-4.413021-73.23057 10.041222-52.828341 36.839134-97.534164 68.433807-139.873585 6.971294-9.401654 14.710071-18.227696 22.832588-28.204962 32.68194 44.386039 61.654383 89.475604 107.51143 123.436681-61.334599 47.20014-118.448048 96.894596-194.42876 117.872436zM910.578959 268.234941c-43.042946 45.98496-86.469633 91.586179-130.216104 136.867615-124.076249 128.233442-247.704799 257.106453-372.996227 384.124716-62.93352 63.892872-129.448622 124.204162-205.301422 173.003222-2.110575 1.343093-4.221151 2.686187-6.395683 3.901367-41.380068 24.559422-54.171434 22.001149-85.31841-18.291653 7.546906-2.8141 14.710071-5.372374 21.745322-8.186474 46.944313-18.739351 87.94064-47.455967 127.657831-77.835461a1817.589127 1817.589127 0 0 0 201.719839-179.910561c97.917905-101.05179 195.388113-202.615235 291.962925-305.074075 50.334025-53.276039 98.23769-108.790566 147.292578-163.345741 1.598921-1.790791 3.389712-3.389712 5.884028-5.884029 28.908487 28.780573 29.548055 33.321508 3.965323 60.631074z" p-id="7824" fill="#ffffff"></path></svg>