<?xml version="1.0" standalone="no"?><!DOCTYPE svg PUBLIC "-//W3C//DTD SVG 1.1//EN" "http://www.w3.org/Graphics/SVG/1.1/DTD/svg11.dtd"><svg t="1567042119721" class="icon" viewBox="0 0 1024 1024" version="1.1" xmlns="http://www.w3.org/2000/svg" p-id="2667" xmlns:xlink="http://www.w3.org/1999/xlink" width="200" height="200"><defs><style type="text/css"></style></defs><path d="M512 512m-512 0a512 512 0 1 0 1024 0 512 512 0 1 0-1024 0Z" fill="#E48F8A" p-id="2668"></path><path d="M591.928889 558.08h-4.835556a366.933333 366.933333 0 0 1-122.88-71.68 13.368889 13.368889 0 0 1-4.551111-11.946667v-4.835555a50.915556 50.915556 0 0 0 0-6.542222 125.155556 125.155556 0 0 0-64.568889-108.942223 13.653333 13.653333 0 0 1-7.111111-11.377777 113.777778 113.777778 0 0 1 62.293334-120.32c20.764444-7.964444 74.808889-17.351111 139.662222 56.888888 45.795556-51.484444 95.288889-72.533333 137.955555-56.888888a109.511111 109.511111 0 0 1 65.422223 108.088888c0 75.093333-50.631111 174.364444-197.404445 227.555556a16.213333 16.213333 0 0 1-3.982222 0z m-102.968889-88.746667a339.626667 339.626667 0 0 0 102.968889 59.164445c129.422222-48.924444 174.933333-134.826667 174.08-199.111111A81.92 81.92 0 0 0 719.644444 247.466667c-33.848889-11.662222-76.8 11.093333-117.475555 62.293333a13.937778 13.937778 0 0 1-11.093333 5.404444 13.937778 13.937778 0 0 1-11.093334-5.404444C540.444444 257.422222 496.071111 234.951111 461.653333 248.32a85.333333 85.333333 0 0 0-44.657777 85.333333 153.315556 153.315556 0 0 1 72.248888 129.706667 56.888889 56.888889 0 0 1-0.284444 5.973333z" fill="#FFFFFF" p-id="2669"></path><path d="M335.644444 616.106667a153.884444 153.884444 0 1 1 153.6-153.884445 154.168889 154.168889 0 0 1-153.6 153.884445z m0-279.04a125.44 125.44 0 1 0 125.155556 125.155555 125.44 125.44 0 0 0-125.155556-125.155555z" fill="#FFFFFF" p-id="2670"></path><path d="M335.644444 462.222222m-27.875555 0a27.875556 27.875556 0 1 0 55.751111 0 27.875556 27.875556 0 1 0-55.751111 0Z" fill="#FFFFFF" p-id="2671"></path><path d="M323.128889 464.497778l-42.097778-77.084445 64.568889 59.733334a14.791111 14.791111 0 0 1 0 20.48 14.222222 14.222222 0 0 1-20.195556 0 9.102222 9.102222 0 0 1-2.275555-3.128889zM341.333333 682.666667a28.444444 28.444444 0 0 1-28.444444-28.444445v-32.426666a28.444444 28.444444 0 0 1 56.888889 0V654.222222a28.444444 28.444444 0 0 1-28.444445 28.444445z" fill="#FFFFFF" p-id="2672"></path><path d="M533.902222 742.968889H398.222222a72.248889 72.248889 0 0 1-72.248889-72.248889V640a14.222222 14.222222 0 0 1 28.444445 0v30.72A43.804444 43.804444 0 0 0 398.222222 714.524444h134.542222a14.222222 14.222222 0 0 1 0 28.444445z" fill="#FFFFFF" p-id="2673"></path><path d="M662.471111 812.657778c-74.808889 0-142.222222-42.951111-142.222222-90.168889s65.422222-90.168889 142.222222-90.168889 142.222222 61.44 142.222222 90.168889-65.137778 90.168889-142.222222 90.168889z m0-151.893334c-64.568889 0-113.777778 33.28-113.777778 61.724445s47.786667 61.724444 113.777778 61.724444a138.524444 138.524444 0 0 0 113.777778-61.44 142.222222 142.222222 0 0 0-113.777778-62.008889z" fill="#FFFFFF" p-id="2674"></path></svg>